<?xml version="1.0" encoding="UTF-8"?>
<svg width="105px" height="101px" viewBox="0 0 105 101" version="1.1" xmlns="http://www.w3.org/2000/svg" xmlns:xlink="http://www.w3.org/1999/xlink">
    <!-- Generator: Sketch 51.2 (57519) - http://www.bohemiancoding.com/sketch -->
    <title>Icon2</title>
    <desc>Created with Sketch.</desc>
    <defs></defs>
    <g id="main" stroke="none" stroke-width="1" fill="none" fill-rule="evenodd">
        <g transform="translate(-751.000000, -673.000000)" id="Group-3">
            <g transform="translate(375.000000, 673.000000)">
                <g id="Icon2" transform="translate(377.000000, 0.000000)">
                    <g id="Group-34" transform="translate(0.000000, 0.916000)">
                        <path d="M59.1005,52.1016 C59.1005,61.8946 42.7675,79.8326 42.7675,79.8326 C42.7675,79.8326 26.4335,61.8946 26.4335,52.1016 C26.4335,42.3086 33.7465,34.3696 42.7675,34.3696 C51.7885,34.3696 59.1005,42.3086 59.1005,52.1016 Z" id="Stroke-2" stroke="#3C3C3C" stroke-width="3" stroke-linecap="round" stroke-linejoin="round"></path>
                        <path d="M51.2075,45.8125 C52.4005,47.6625 53.1005,49.9145 53.1005,52.3435 C53.1005,55.2215 50.9065,59.1935 48.5235,62.6585" id="Stroke-4" stroke="#3C3C3C" stroke-width="2" stroke-linecap="round" stroke-linejoin="round"></path>
                        <path d="M38.2929,41.9443 C39.6069,41.3013 41.0649,40.9443 42.6009,40.9443 C43.8739,40.9443 45.0949,41.1903 46.2249,41.6413" id="Stroke-6" stroke="#3C3C3C" stroke-width="2" stroke-linecap="round" stroke-linejoin="round"></path>
                        <path d="M48.309,17.2515 C47.558,16.6555 46.685,16.5225 45.834,16.7025 C47.072,15.5255 48.316,14.3015 48.802,13.6885 C49.902,12.3005 49.668,10.2845 48.281,9.1845 C47.323,8.4255 46.07,8.3155 45.021,8.7685 C45.435,7.3945 45.734,6.1045 45.734,5.2375 C45.734,2.3915 44.299,0.0845 42.528,0.0845 C40.758,0.0845 39.323,2.3915 39.323,5.2375 C39.323,6.0435 39.584,7.2185 39.953,8.4845 C38.945,8.1245 37.783,8.2675 36.883,8.9805 C35.495,10.0805 35.262,12.0975 36.361,13.4845 C36.801,14.0395 37.861,15.2305 38.975,16.4595 C38.259,16.3865 37.547,16.5435 36.911,17.0475 C35.523,18.1475 35.29,20.1635 36.39,21.5515 C37.489,22.9385 42.474,29.1585 42.474,29.1585 C42.474,29.1585 42.543,28.8875 42.64,28.4325 C42.699,29.0105 42.746,29.3615 42.746,29.3615 C42.746,29.3615 47.731,23.1425 48.83,21.7545 C49.93,20.3675 49.697,18.3515 48.309,17.2515 Z" id="Stroke-8" stroke="#3C3C3C" stroke-width="2" stroke-linejoin="round"></path>
                        <path d="M24.3803,21.8735 L41.9063,33.1615" id="Stroke-10" stroke="#3C3C3C" stroke-width="2" stroke-linecap="round"></path>
                        <path d="M28.2851,17.6182 C27.3721,17.9112 26.7761,18.5612 26.4521,19.3682 C26.1631,17.6862 25.8381,15.9712 25.5991,15.2252 C25.0581,13.5402 23.2531,12.6122 21.5671,13.1532 C20.4031,13.5262 19.6151,14.5062 19.4081,15.6292 C18.4961,14.5212 17.5911,13.5542 16.8701,13.0722 C14.5061,11.4882 11.7901,11.3962 10.8051,12.8682 C9.8201,14.3382 10.9381,16.8152 13.3021,18.3982 C13.9721,18.8472 15.0941,19.2842 16.3511,19.6822 C15.4911,20.3192 14.9631,21.3642 15.0551,22.5092 C15.1961,24.2742 16.7421,25.5902 18.5071,25.4492 C19.2121,25.3922 20.7911,25.1742 22.4321,24.9322 C21.9731,25.4872 21.7081,26.1662 21.7731,26.9752 C21.9141,28.7402 23.4591,30.0562 25.2241,29.9142 C26.9891,29.7732 34.9301,29.0932 34.9301,29.0932 C34.9301,29.0932 34.7441,28.8842 34.4201,28.5512 C34.9331,28.8242 35.2511,28.9792 35.2511,28.9792 C35.2511,28.9792 32.8581,21.3772 32.3171,19.6912 C31.7761,18.0052 29.9711,17.0772 28.2851,17.6182 Z" id="Stroke-12" stroke="#3C3C3C" stroke-width="2" stroke-linejoin="round"></path>
                        <path d="M43.4472,33.1616 L60.9732,21.8736" id="Stroke-14" stroke="#3C3C3C" stroke-width="2" stroke-linecap="round"></path>
                        <path d="M53.0366,19.6914 C52.4956,21.3774 50.1026,28.9794 50.1026,28.9794 C50.1026,28.9794 50.4196,28.8234 50.9336,28.5514 C50.6096,28.8844 50.4236,29.0924 50.4236,29.0924 C50.4236,29.0924 58.3646,29.7734 60.1286,29.9144 C61.8936,30.0554 63.4396,28.7394 63.5806,26.9754 C63.6456,26.1664 63.3796,25.4874 62.9206,24.9324 C64.5626,25.1734 66.1416,25.3924 66.8466,25.4484 C68.6116,25.5904 70.1576,24.2744 70.2986,22.5094 C70.3906,21.3644 69.8626,20.3184 69.0026,19.6824 C70.2596,19.2844 71.3816,18.8474 72.0516,18.3984 C74.4156,16.8154 75.5336,14.3384 74.5486,12.8674 C73.5626,11.3964 70.8476,11.4874 68.4836,13.0714 C67.7626,13.5544 66.8566,14.5214 65.9456,15.6294 C65.7386,14.5054 64.9506,13.5264 63.7866,13.1524 C62.0996,12.6114 60.2946,13.5404 59.7536,15.2254 C59.5156,15.9704 59.1896,17.6864 58.9016,19.3684 C58.5776,18.5614 57.9816,17.9114 57.0686,17.6184 C55.3826,17.0774 53.5776,18.0054 53.0366,19.6914 Z" id="Stroke-16" stroke="#3C3C3C" stroke-width="2" stroke-linejoin="round"></path>
                        <path d="M13.8505,88.125 C17.2885,85.044 26.5655,80.352 32.1065,78.893 C35.0385,79.708 39.1005,81.875 41.9325,83.981 C44.8905,81.856 55.7675,77.924 62.1005,76.175 C78.2575,71.712 98.7255,69.786 101.1425,70.125 C102.8475,70.452 103.8715,71.146 103.9755,71.625 C96.9755,73.375 75.9725,80.682 61.8505,88.125 C54.5135,91.992 41.4245,98.587 39.9785,100 C39.9785,100 23.4335,90.542 13.8505,88.125" id="Fill-18" fill="#00AF08"></path>
                        <path d="M59.4819,47.3711 C66.6589,47.4911 74.0179,48.1051 81.4769,49.2531 C85.0749,49.8071 88.6149,50.4711 92.0869,51.2391" id="Stroke-20" stroke="#3C3C3C" stroke-width="2" stroke-linecap="round" stroke-linejoin="round"></path>
                        <path d="M56.809,60.2764 C63.768,58.5154 71.031,57.1844 78.531,56.3404 C82.149,55.9344 85.738,55.6504 89.291,55.4844" id="Stroke-22" stroke="#3C3C3C" stroke-width="2" stroke-linecap="round" stroke-linejoin="round"></path>
                        <path d="M14.1684,79.6191 C20.1674,75.7561 26.7644,72.2891 33.8554,69.3041" id="Stroke-24" stroke="#3C3C3C" stroke-width="2" stroke-linecap="round" stroke-linejoin="round"></path>
                        <path d="M59.1005,52.9336 C66.2035,51.8956 73.5655,51.3166 81.1115,51.2466 C84.7525,51.2126 88.3515,51.2986 91.9025,51.4976" id="Stroke-26" stroke="#3C3C3C" stroke-width="2" stroke-linecap="round" stroke-linejoin="round"></path>
                        <path d="M10.2416,71.583 C16.4806,68.121 23.2906,65.093 30.5616,62.579" id="Stroke-28" stroke="#3C3C3C" stroke-width="2" stroke-linecap="round" stroke-linejoin="round"></path>
                        <path d="M5.1454,64.8857 C11.4924,61.6247 18.3954,58.8177 25.7444,56.5377" id="Stroke-30" stroke="#3C3C3C" stroke-width="2" stroke-linecap="round" stroke-linejoin="round"></path>
                        <path d="M-0.0001,57.3857 C8.0999,54.5067 16.7919,52.2567 25.9299,50.7087" id="Stroke-32" stroke="#3C3C3C" stroke-width="2" stroke-linecap="round" stroke-linejoin="round"></path>
                        <path d="M42.6005,16.375 L42.9755,33.375" id="Stroke-1" stroke="#3C3C3C" stroke-width="2" stroke-linecap="round"></path>
                    </g>
                </g>
            </g>
        </g>
    </g>
</svg>