<?xml version="1.0" encoding="UTF-8"?>
<svg width="91px" height="108px" viewBox="0 0 91 108" version="1.1" xmlns="http://www.w3.org/2000/svg" xmlns:xlink="http://www.w3.org/1999/xlink">
    <!-- Generator: Sketch 51.2 (57519) - http://www.bohemiancoding.com/sketch -->
    <title>Icon3</title>
    <desc>Created with Sketch.</desc>
    <defs></defs>
    <g id="main" stroke="none" stroke-width="1" fill="none" fill-rule="evenodd">
        <g transform="translate(-1058.000000, -677.000000)" id="Group-3">
            <g transform="translate(375.000000, 673.000000)">
                <g id="Icon3" transform="translate(683.000000, 5.000000)">
                    <g id="Group">
                        <path d="M0,94.355 C3.438,91.274 12.715,86.582 18.257,85.123 C21.187,85.938 25.25,88.105 28.082,90.211 C31.04,88.086 41.917,84.154 48.25,82.405 C64.407,77.942 84.875,76.016 87.292,76.355 C88.997,76.682 90.021,77.376 90.125,77.855 C83.125,79.605 62.121,86.912 48,94.355 C40.663,98.222 27.574,104.817 26.128,106.23 C26.128,106.23 9.583,96.772 0,94.355" id="Fill-1" fill="#00AF08"></path>
                        <path d="M70.6514,74.3501 L75.1024,74.3501 L75.1024,55.8131 C74.2974,52.2201 72.2534,50.4231 68.9694,50.4231 L38.7184,50.4231 L38.7184,35.8751" id="Stroke-3" stroke="#3C3C3C" stroke-width="3" stroke-linecap="round" stroke-linejoin="round"></path>
                        <path d="M52.6162,57.1236 L74.6412,57.1236" id="Stroke-5" stroke="#3C3C3C" stroke-width="2" stroke-linecap="round"></path>
                        <path d="M60.3926,61.5991 L74.7176,61.5991" id="Stroke-7" stroke="#3C3C3C" stroke-width="2" stroke-linecap="round"></path>
                        <path d="M63.2598,50.4165 L63.2598,41.4255 C63.2598,38.0135 65.7258,36.9495 65.7258,36.9495" id="Stroke-9" stroke="#3C3C3C" stroke-width="3" stroke-linecap="round"></path>
                        <polyline id="Stroke-11" stroke="#3C3C3C" stroke-width="3" stroke-linecap="round" stroke-linejoin="round" points="15.2764 53.5191 21.0494 30.1371 48.8644 30.1371 54.3524 49.4201"></polyline>
                        <path d="M50.5039,74.3443 L41.0909,74.3443 C41.4329,68.3203 38.9829,61.4333 33.4599,57.1233 C25.7669,51.5343 15.0279,52.2743 8.5629,57.8293" id="Stroke-13" stroke="#3C3C3C" stroke-width="3" stroke-linecap="round"></path>
                        <path d="M60.5957,66.0825 C65.8487,66.0825 70.1077,70.3405 70.1077,75.5935 C70.1077,80.8465 65.8487,85.1045 60.5957,85.1045 C55.3427,85.1045 51.0837,80.8465 51.0837,75.5935 C51.0837,70.3405 55.3427,66.0825 60.5957,66.0825 Z" id="Stroke-15" stroke="#3C3C3C" stroke-width="3"></path>
                        <path d="M21.4307,59.3677 C28.5377,59.3677 34.2997,65.1297 34.2997,72.2367 C34.2997,79.3437 28.5377,85.1047 21.4307,85.1047 C14.3247,85.1047 8.5627,79.3437 8.5627,72.2367 C8.5627,65.1297 14.3247,59.3677 21.4307,59.3677 Z" id="Stroke-17" stroke="#3C3C3C" stroke-width="3"></path>
                        <path d="M21.4307,67.2007 C24.2117,67.2007 26.4667,69.4557 26.4667,72.2367 C26.4667,75.0167 24.2117,77.2717 21.4307,77.2717 C18.6507,77.2717 16.3957,75.0167 16.3957,72.2367 C16.3957,69.4557 18.6507,67.2007 21.4307,67.2007 Z" id="Stroke-19" stroke="#3C3C3C" stroke-width="2"></path>
                        <path d="M60.5957,72.7964 C62.1407,72.7964 63.3937,74.0484 63.3937,75.5934 C63.3937,77.1384 62.1407,78.3914 60.5957,78.3914 C59.0507,78.3914 57.7987,77.1384 57.7987,75.5934 C57.7987,74.0484 59.0507,72.7964 60.5957,72.7964 Z" id="Stroke-21" stroke="#3C3C3C" stroke-width="2"></path>
                        <path d="M71.6885,29.21 C72.6255,25.469 71.2745,21.699 68.5285,19.354 C68.5575,19.253 68.5935,19.157 68.6195,19.055 C68.9225,17.844 68.9515,16.629 68.7425,15.476 C68.4795,14.023 67.8425,12.669 66.9105,11.546 C65.7955,10.203 64.2585,9.189 62.4365,8.732 C60.9525,8.36 59.4625,8.404 58.0885,8.79 C57.1365,9.056 56.2405,9.486 55.4395,10.055 C54.3365,8.789 52.8525,7.832 51.1005,7.392 C49.9765,7.11 48.8495,7.067 47.7725,7.23 C46.8525,7.369 45.9675,7.658 45.1535,8.078 C44.3375,8.498 43.5905,9.048 42.9465,9.708 C42.3525,8.064 40.9795,6.735 39.1565,6.278 C36.9325,5.72 34.6885,6.624 33.4265,8.379 C33.0005,4.451 30.1975,1.018 26.1405,0" id="Stroke-23" stroke="#3C3C3C" stroke-width="2" stroke-linecap="round" stroke-linejoin="round"></path>
                    </g>
                </g>
            </g>
        </g>
    </g>
</svg>