<?xml version="1.0" encoding="UTF-8"?>
<svg width="91px" height="99px" viewBox="0 0 91 99" version="1.1" xmlns="http://www.w3.org/2000/svg" xmlns:xlink="http://www.w3.org/1999/xlink">
    <!-- Generator: Sketch 51.2 (57519) - http://www.bohemiancoding.com/sketch -->
    <title>Icon4</title>
    <desc>Created with Sketch.</desc>
    <defs>
        <path d="M25.956,59.042 C25.678,59.345 25.262,59.479 24.86,59.396 L22.416,58.913 L22.126,61.388 C22.078,61.797 21.819,62.151 21.444,62.323 L19.184,63.361 L20.401,65.532 L20.401,65.526 C20.609,65.883 20.604,66.321 20.401,66.683 L19.184,68.853 L21.444,69.889 C21.819,70.061 22.078,70.416 22.126,70.826 L22.416,73.299 L24.86,72.816 C24.934,72.801 25.012,72.792 25.089,72.793 C25.419,72.793 25.733,72.93 25.956,73.173 L27.645,75 L29.334,73.17 C29.611,72.867 30.028,72.732 30.43,72.815 L32.873,73.299 L33.164,70.824 C33.213,70.415 33.47,70.06 33.845,69.889 L36.106,68.852 L34.889,66.681 C34.688,66.323 34.688,65.883 34.889,65.525 L36.106,63.354 L33.845,62.318 C33.47,62.146 33.213,61.791 33.164,61.382 L32.873,58.908 L30.43,59.391 C30.028,59.475 29.611,59.34 29.334,59.036 L27.645,57.208 L25.956,59.042 Z" id="path-1"></path>
    </defs>
    <g id="main" stroke="none" stroke-width="1" fill="none" fill-rule="evenodd">
        <g transform="translate(-1369.000000, -687.000000)" id="Group-3">
            <g transform="translate(375.000000, 673.000000)">
                <g id="Icon4" transform="translate(994.000000, 14.000000)">
                    <g id="Group-20" transform="translate(0.000000, 0.904800)">
                        <path d="M0.0004,86.125 C3.4384,83.044 12.7154,78.352 18.2564,76.893 C21.1874,77.708 25.2504,79.875 28.0814,81.981 C31.0404,79.856 41.9164,75.924 48.2504,74.175 C64.4074,69.712 84.8754,67.786 87.2914,68.125 C88.9974,68.452 90.0214,69.146 90.1254,69.625 C83.1254,71.375 62.1214,78.682 48.0004,86.125 C40.6634,89.992 27.5734,96.587 26.1284,98 C26.1284,98 9.5834,88.542 0.0004,86.125" id="Fill-1" fill="#00AF08"></path>
                        <path d="M24.4437,17.7168 C21.6767,16.2918 19.7957,19.1748 20.6297,21.7908 C21.2667,23.7938 22.4737,25.7998 24.7717,26.2828" id="Path" stroke="#3C3C3C" stroke-width="2" stroke-linecap="round" stroke-linejoin="round"></path>
                        <path d="M51.9167,26.2828 C54.2147,25.7998 56.7187,23.9998 57.0937,21.1248 C57.5147,17.8988 54.5517,16.8748 52.2447,18.7168" id="Path" stroke="#3C3C3C" stroke-width="2" stroke-linecap="round" stroke-linejoin="round"></path>
                        <polyline id="Path" stroke="#3C3C3C" stroke-width="3" stroke-linecap="round" stroke-linejoin="round" points="32.1088 36.9238 32.1088 39.6398 22.6008 43.1598"></polyline>
                        <path d="M62.3088,67.6568 L62.3088,54.5258 C62.3068,54.2078 62.1308,46.7368 50.1738,42.7488 C49.1268,42.1738 45.6508,40.7118 44.5088,39.6398 L44.5088,36.9238" id="Path" stroke="#3C3C3C" stroke-width="3" stroke-linecap="round" stroke-linejoin="round"></path>
                        <path d="M28.5111,17.3394 C31.2541,17.0814 40.1771,16.1624 43.5111,12.3064 C44.7931,14.8124 49.3261,16.6244 51.3391,16.0584" id="Stroke-6" stroke="#3C3C3C" stroke-width="3" stroke-linecap="round" stroke-linejoin="round"></path>
                        <path d="M35.7416,76.3652 L36.2326,76.3652 C37.9146,76.3652 39.2776,75.0022 39.2776,73.3212 L39.2776,47.3822" id="Path" stroke="#3C3C3C" stroke-width="2" stroke-linecap="round" stroke-linejoin="round"></path>
                        <path d="M41.8026,50.2502 L43.8446,50.2042 C45.3866,48.6672 44.8866,44.1602 40.7996,44.1602 L12.7886,44.1602 C11.1066,44.1602 9.7446,45.5222 9.7446,47.2042 L9.7446,68.3072" id="Path" stroke="#3C3C3C" stroke-width="2" stroke-linecap="round" stroke-linejoin="round"></path>
                        <path d="M18.5416,72.5592 L5.9386,72.5592 C5.5176,72.5592 5.1776,72.9002 5.1776,73.3212 C5.1776,75.0022 6.5406,76.3652 8.2216,76.3652 L20.5026,76.3652" id="Path" stroke="#3C3C3C" stroke-width="2" stroke-linecap="round" stroke-linejoin="round"></path>
                        <path d="M31.4276,74.0822 L31.4276,83.6612 L28.1596,80.3932 C27.8626,80.0962 27.3816,80.0962 27.0836,80.3932 L23.8166,83.6612 L23.8166,74.0822" id="Path" stroke="#3C3C3C" stroke-width="2" stroke-linecap="round" stroke-linejoin="round"></path>
                        <path d="M34.8891,66.6807 L36.1061,68.8517 L33.8451,69.8887 C33.4701,70.0607 33.2121,70.4147 33.1641,70.8247 L32.8731,73.2987 L30.4301,72.8157 C30.0281,72.7317 29.6111,72.8667 29.3331,73.1697 L27.6451,74.9997 L25.9561,73.1727 C25.7331,72.9307 25.4181,72.7927 25.0891,72.7927 C25.0121,72.7917 24.9351,72.8007 24.8601,72.8167 L22.4161,73.2997 L22.1251,70.8267 C22.0771,70.4157 21.8191,70.0617 21.4451,69.8897 L19.1841,68.8527 L20.4011,66.6827 C20.6041,66.3217 20.6091,65.8837 20.4011,65.5267 L20.4011,65.5317 L19.1841,63.3607 L21.4451,62.3237 C21.8191,62.1517 22.0771,61.7967 22.1251,61.3877 L22.4161,58.9127 L24.8601,59.3967 C25.2621,59.4797 25.6781,59.3447 25.9561,59.0417 L27.6451,57.2077 L29.3331,59.0357 C29.6111,59.3397 30.0281,59.4747 30.4301,59.3907 L32.8731,58.9077 L33.1641,61.3817 C33.2121,61.7907 33.4701,62.1457 33.8451,62.3177 L36.1061,63.3547 L34.8891,65.5257 C34.6881,65.8837 34.6881,66.3227 34.8891,66.6807 Z" id="Stroke-16" stroke="#3C3C3C" stroke-width="2" stroke-linecap="round" stroke-linejoin="round"></path>
                        <path d="M52.4096,19.082 C52.4096,29.291 46.2226,37.568 38.5906,37.568 C30.9586,37.568 24.7716,29.291 24.7716,19.082 C24.7716,8.872 24.7716,0.595 38.5906,0.595 C51.3396,0.595 52.4096,8.872 52.4096,19.082 Z" id="Stroke-18" stroke="#3C3C3C" stroke-width="3" stroke-linecap="round" stroke-linejoin="round"></path>
                        <mask id="mask-2" fill="white">
                            <use xlink:href="#path-1"></use>
                        </mask>
                        <g id="Clip-14"></g>
                    </g>
                </g>
            </g>
        </g>
    </g>
</svg>